<svg width="20" height="20" viewBox="0 0 20 20" fill="none" xmlns="http://www.w3.org/2000/svg">
<path d="M16.25 2.83472H14.375V2.20972C14.375 2.04396 14.3092 1.88499 14.1919 1.76778C14.0747 1.65056 13.9158 1.58472 13.75 1.58472C13.5842 1.58472 13.4253 1.65056 13.3081 1.76778C13.1908 1.88499 13.125 2.04396 13.125 2.20972V2.83472H6.875V2.20972C6.875 2.04396 6.80915 1.88499 6.69194 1.76778C6.57473 1.65056 6.41576 1.58472 6.25 1.58472C6.08424 1.58472 5.92527 1.65056 5.80806 1.76778C5.69085 1.88499 5.625 2.04396 5.625 2.20972V2.83472H3.75C3.41848 2.83472 3.10054 2.96641 2.86612 3.20083C2.6317 3.43525 2.5 3.7532 2.5 4.08472V16.5847C2.5 16.9162 2.6317 17.2342 2.86612 17.4686C3.10054 17.703 3.41848 17.8347 3.75 17.8347H16.25C16.5815 17.8347 16.8995 17.703 17.1339 17.4686C17.3683 17.2342 17.5 16.9162 17.5 16.5847V4.08472C17.5 3.7532 17.3683 3.43525 17.1339 3.20083C16.8995 2.96641 16.5815 2.83472 16.25 2.83472ZM5.625 4.08472V4.70972C5.625 4.87548 5.69085 5.03445 5.80806 5.15166C5.92527 5.26887 6.08424 5.33472 6.25 5.33472C6.41576 5.33472 6.57473 5.26887 6.69194 5.15166C6.80915 5.03445 6.875 4.87548 6.875 4.70972V4.08472H13.125V4.70972C13.125 4.87548 13.1908 5.03445 13.3081 5.15166C13.4253 5.26887 13.5842 5.33472 13.75 5.33472C13.9158 5.33472 14.0747 5.26887 14.1919 5.15166C14.3092 5.03445 14.375 4.87548 14.375 4.70972V4.08472H16.25V6.58472H3.75V4.08472H5.625ZM16.25 16.5847H3.75V7.83472H16.25V16.5847Z" fill="#8B8D9B"/>
</svg>
